<?xml version="1.0" encoding="utf-8"?>
<svg width="7px" height="11px" viewBox="0 0 7 11" version="1.1" xmlns:xlink="http://www.w3.org/1999/xlink" xmlns="http://www.w3.org/2000/svg">
  <desc>Created with Lunacy</desc>
  <g id="angle-right">
    <path d="M5.95079 4.5358L1.71079 0.295798C1.52303 0.106486 1.26743 0 1.00079 0C0.734155 0 0.478559 0.106486 0.290793 0.295798C-0.0969309 0.685836 -0.0969309 1.31576 0.290793 1.7058L3.83079 5.2458L0.290793 8.7858C-0.0969309 9.17584 -0.0969309 9.80576 0.290793 10.1958C0.479512 10.383 0.73499 10.4873 1.00079 10.4858C1.2666 10.4873 1.52207 10.383 1.71079 10.1958L5.95079 5.9558C6.14011 5.76803 6.24659 5.51244 6.24659 5.2458C6.24659 4.97916 6.14011 4.72356 5.95079 4.5358Z" id="Path" fill="#000000" stroke="none" />
  </g>
</svg>